<?xml version="1.0" encoding="UTF-8"?>
<svg id="Capa_1" data-name="Capa 1" xmlns="http://www.w3.org/2000/svg" viewBox="0 0 681.82 122.37">
  <defs>
    <style>
      .cls-1 {
        fill-rule: evenodd;
      }

      .cls-1, .cls-2 {
        fill: #003a71;
      }
    </style>
  </defs>
  <g>
    <path class="cls-1" d="M372.61,39.89l-20.61.03.09,42.8,12.58-.04-.07-31.06,7.12-.03c1.17,0,2.07.87,2.07,1.93,0,1.02-.95,1.9-2.06,1.9h-5.37s0,11.71,0,11.71h2.87c2.51,0,4.58,1.86,4.59,4.21l.02,11.34,12.52-.02v-12.74c.04-.28.04-.52.04-.72,0-2.97-1.29-5.8-3.48-7.94,2.18-2.34,3.4-5.34,3.4-8.47-.01-7.08-6.11-12.87-13.66-12.91h-.05Z"/>
    <g>
      <path class="cls-1" d="M301.07,58.72l.02,11.91c-9.3-2.88-10.1-14.86-1.21-18.75,4.03-2.14,9.01-2.32,13.2-.41v-10.76c-2.75-1-5.67-1.47-8.57-1.47-12.98.02-23.42,9.77-23.41,21.81.02,12.04,10.51,21.77,23.47,21.74,2.91,0,5.82-.5,8.55-1.48l-.03-22.59h-12.02Z"/>
      <path class="cls-1" d="M264.04,82.82h12.55s-.04-26.81-.04-26.81c-.02-8.79-7.68-15.96-17.15-15.95-9.44,0-17.1,7.18-17.13,15.94l.04,26.87,12.58-.03-.03-26.8c-.03-5.69,9.15-5.72,9.15-.02l.03,26.78Z"/>
      <path class="cls-1" d="M347.46,55.47l-12.81.02c-2.75-.06-2.7-3.84-.02-3.84l12.81-.02v-11.7s-17.14.01-17.14.01h-.5c-6.66.04-12.07,5.06-12.06,11.25,0,4.31,2.69,8.31,6.89,10.16-4.19,1.8-6.87,5.82-6.86,10.13,0,6.24,5.44,11.26,12.09,11.26.18-.01.34,0,.52,0l17.12-.03-.02-11.71h-12.83c-1.11.02-2-.86-2.03-1.91.03-1.08.91-1.92,2.03-1.97h12.83s-.02-11.67-.02-11.67Z"/>
      <path class="cls-1" d="M237.74,55.64h-12.86c-2.75-.06-2.71-3.81.04-3.82l12.8-.03v-11.7s-17.18.02-17.18.02h-.53c-6.64,0-12.01,5.06-12,11.23,0,4.33,2.7,8.32,6.85,10.17-4.14,1.8-6.83,5.83-6.81,10.13.01,6.22,5.38,11.27,12.04,11.26h.57s17.1-.02,17.1-.02v-11.71s-12.81.02-12.81.02c-1.12,0-2.07-.87-2.06-1.91,0-1.09.88-1.92,2.01-1.99h12.85s0-11.64,0-11.64Z"/>
      <path class="cls-1" d="M114.01,82.9l13.7-.02-.02-12.72h6.82s.02,12.72.02,12.72l13.88-.05-.04-26.68c-.02-8.82-7.7-15.98-17.19-15.95-9.36,0-17.07,7.18-17.22,15.88l.04,26.83ZM127.68,54.31c-.02-1.69,1.48-3.23,3.33-3.21,1.97-.02,3.48,1.51,3.49,3.21v3.1s-6.82.03-6.82.03v-3.13Z"/>
      <path class="cls-1" d="M194.28,82.94c-7.53.01-13.71-5.68-13.72-12.71l-.04-30.06h13.7s.06,26.82.06,26.82c0,1.77,1.57,3.17,3.45,3.17h5.67s.02,12.76.02,12.76h-9.14Z"/>
      <path class="cls-1" d="M166.93,82.97c-7.61.02-13.77-5.64-13.78-12.71l-.05-30.06h13.76s.06,26.87.06,26.87c0,1.75,1.52,3.16,3.41,3.16h5.72s.02,12.74.02,12.74h-9.13Z"/>
      <polygon class="cls-1" points="96.93 83.08 96.9 65.84 87.79 65.85 87.82 83.08 75.23 83.1 75.16 40.34 87.75 40.31 87.78 53.11 96.89 53.09 96.86 40.31 109.41 40.26 109.47 83.05 96.93 83.08"/>
      <path class="cls-1" d="M70.55,42.32c-2.89-1.16-5.96-1.75-9.07-1.75-12.67,0-22.89,9.55-22.89,21.25.02,11.76,10.29,21.25,22.93,21.25,3.11,0,6.2-.65,9.13-1.83l-.02-12.59c-6.66,6.42-18.3,2.07-18.32-6.85,0-5.47,4.74-9.92,10.69-9.92,2.84-.02,5.58,1.08,7.59,2.99l-.03-12.55Z"/>
    </g>
  </g>
  <path class="cls-2" d="M536.33,33.21c-7.47-7.47-17.41-11.59-27.98-11.59-10.57,0-20.51,4.11-27.98,11.59-5.21,5.21-8.78,11.61-10.47,18.59-4.7-5.73-11.25-9.46-18.63-10.59-1.51-.23-3.05-.35-4.56-.35-1.99,0-3.96.2-5.89.59l15.23-19.82h-9.24s-.47.6-.47.6c-9.61,12.5-20.97,27.28-23.52,30.62l-.03-.02-.49.7-.59.72.07.05c-6.91,10.46-6.6,24.12.86,34.26,2.83,3.84,6.57,6.98,10.83,9.08,4.12,2.03,8.72,3.11,13.33,3.11h0c6.42,0,12.54-2.01,17.71-5.81,4.59-3.38,8.05-7.88,10.09-13.06,1.61,2.62,3.54,5.06,5.76,7.29,7.47,7.47,17.41,11.59,27.98,11.59,10.57,0,20.51-4.11,27.98-11.59,7.47-7.47,11.59-17.41,11.59-27.98,0-10.57-4.12-20.51-11.59-27.98ZM469.13,74.21c-.91,5.98-4.09,11.25-8.95,14.82-3.91,2.87-8.53,4.39-13.38,4.39-7.19,0-14.02-3.44-18.26-9.21-7.4-10.05-5.24-24.25,4.82-31.64,3.92-2.88,8.54-4.41,13.36-4.41,1.15,0,2.31.09,3.46.26,5.98.91,11.24,4.09,14.82,8.96,3.58,4.86,5.04,10.83,4.13,16.82ZM509.12,94.53c-18.32,0-33.17-14.85-33.17-33.17,0-18.32,14.85-33.17,33.17-33.16,18.32,0,33.17,14.85,33.17,33.17,0,18.32-14.85,33.16-33.17,33.16Z"/>
  <g>
    <g>
      <path class="cls-2" d="M571.87,60.32c-5.45,6.65-9.98,13.47-13.96,20.94-.55.98-.3,2.61-1.77,2.6h-.38c-.54-.06-.71-.34-.7-.72v-.11c0-.54.34-1.14.5-1.47,3.39-7.1,9.06-14.35,13.85-20.73.17-.22.28-.32.28-.43s-.11-.16-.22-.17c-.16,0-.38.05-.65.05-.49.1-4.09.51-4.15,1.11,0,.33-5.29,1.2-6.38,1.19h-.11c-.49-.11-.65-.55-.65-.88,0-.22.06-.33.17-.38,1.15-.7,9.88-2.31,12-2.56,1.31-.21,2.08-.63,2.79-1.5,4.95-5.67,13.3-14.09,20.04-18.28.6-.32,1.04-.48,1.47-.48h.16c.65,0,1.14.5,1.13,1.32v.11c-.06.38-.17.82-.45,1.36-2.28,4.77-5.04,9.26-7.48,13.98-.44.87-.72,1.35-.72,1.57s.11.27.43.28h.98c.44.01.98.02,1.63.08.44,0,.92.06,1.47.12.87.12,1.14.5,1.14.94-.06.44-.44.87-.88.86-.11,0-.22-.06-.33-.17-.32-.28-.87-.39-1.47-.45h-.44c-.93-.01-1.96.09-2.78.08-.49,0-.82.21-1.04.64-2.33,4.99-4.5,9.92-6.07,15.14-.06.27-.11.49-.12.71v1.03c-.07.49-.18.82-.83.86h-.22c-.65-.06-.81-.55-.81-1.32v-.27c.07-1.74,1.19-4.45,1.35-4.89,1.61-3.63,3.22-7.32,4.78-10.95.11-.27.17-.43.17-.54v-.05c0-.05-.11-.11-.27-.17-.11,0-.22,0-.38.05l-9.81.89c-.54.05-.98.21-1.31.59ZM574.23,57.84l.05.06c0,.16.16.22.33.22.27,0,.6-.05.76-.05l8.56-.79c.76-.05.88-.48,1.21-1.08,2.33-4.33,6.64-11.65,8.42-15.93-3.71,1.38-19.2,16.11-19.32,17.58Z"/>
      <path class="cls-2" d="M556.16,84.11h-.02s-.38,0-.38,0c-.63-.07-.95-.4-.95-.96v-.11c0-.56.31-1.14.49-1.49l.04-.08c3.07-6.45,8.08-13.08,12.5-18.94l1.48-1.96s.03-.04.05-.06c-.04,0-.07,0-.11.01-.12.01-.26.03-.41.03-.1.02-.3.05-.54.09-2.1.31-3.25.59-3.39.82-.27.77-6.55,1.39-6.62,1.39h0s-.16,0-.16,0c-.62-.14-.84-.69-.84-1.12,0-.11,0-.45.3-.6,1.17-.71,9.96-2.33,12.08-2.58,1.22-.19,1.94-.58,2.63-1.41,5.14-5.89,13.48-14.22,20.1-18.33.68-.37,1.14-.51,1.59-.51h.02s.16,0,.16,0c.39,0,.75.16,1,.44.25.28.38.67.38,1.13v.11c-.05.35-.15.83-.48,1.47-1.34,2.81-2.88,5.57-4.36,8.24-1.04,1.87-2.11,3.8-3.12,5.74l-.23.44c-.24.47-.47.9-.47,1.02-.02,0,.02.03.19.03h.98c.44.01.99.02,1.65.08.38,0,.83.05,1.31.1l.16.02c1.13.15,1.36.73,1.36,1.18-.07.55-.54,1.11-1.12,1.11h0c-.18,0-.34-.08-.5-.24-.29-.25-.89-.33-1.31-.38h-.41c-.47,0-.97.02-1.46.04-.47.02-.91.04-1.32.04h-.01c-.38,0-.62.15-.81.51-2.2,4.7-4.46,9.8-6.05,15.09l-.02.12c-.04.2-.08.37-.08.52v1.03c-.07.52-.21,1.04-1.06,1.11h-.24c-1.06-.1-1.05-1.13-1.05-1.56v-.27c.05-1.11.49-2.74,1.32-4.85l.05-.12c1.7-3.82,3.3-7.51,4.78-10.96.04-.09.12-.28.14-.4-.02,0-.04-.01-.06-.02h0c-.08,0-.15,0-.26.04h-.05s-9.81.9-9.81.9c-.53.05-.88.2-1.15.5-5.37,6.55-9.92,13.38-13.93,20.9-.16.28-.25.64-.34.98-.2.78-.44,1.74-1.63,1.74ZM569.47,60h0c.26,0,.46.18.46.41,0,.17-.1.3-.23.46l-.1.12-1.38,1.83c-4.4,5.84-9.39,12.45-12.45,18.86l-.05.09c-.16.31-.43.83-.43,1.27v.11c0,.26.07.42.48.47h.36c.76,0,.94-.49,1.16-1.37.1-.38.19-.77.38-1.1,4.02-7.54,8.6-14.41,13.99-20.98h0c.35-.4.82-.62,1.48-.68l9.78-.89c.19-.06.32-.05.43-.05h.08c.15.07.44.16.44.41v.05c0,.15-.07.34-.19.63-1.48,3.46-3.09,7.15-4.78,10.96l-.04.11c-.81,2.06-1.24,3.64-1.29,4.69v.26c-.01.85.21,1.03.58,1.07h.2c.46-.03.52-.2.58-.65v-1.01c0-.21.05-.4.1-.62l.03-.13c1.61-5.35,3.88-10.46,6.09-15.19.27-.52.69-.79,1.25-.79.03,0,.07,0,.1,0,.37,0,.77-.02,1.2-.04.49-.02,1-.05,1.49-.04h.44c.81.08,1.3.24,1.62.51.08.08.12.1.17.11.31,0,.59-.34.63-.65,0-.12,0-.53-.92-.66l-.16-.02c-.46-.05-.9-.1-1.28-.1-.66-.06-1.2-.06-1.63-.07h-.98c-.2-.01-.68-.01-.68-.53,0-.24.18-.57.52-1.25l.22-.44c1.01-1.95,2.08-3.88,3.12-5.75,1.48-2.67,3.01-5.42,4.35-8.22.23-.45.36-.84.43-1.29v-.07c0-.33-.09-.61-.26-.8-.16-.18-.38-.27-.63-.27h-.16c-.34,0-.75.12-1.36.45-6.55,4.07-14.86,12.36-19.97,18.22-.76.92-1.59,1.37-2.94,1.58-2.35.28-10.85,1.88-11.91,2.53-.02.01-.05.04-.05.17,0,.09.02.52.43.63h.08c1.09-.01,5.61-.78,6.16-1.07.18-.46,1.17-.75,3.77-1.14.26-.04.45-.07.54-.09h.03s.03,0,.03,0c.13,0,.27-.01.38-.03.1-.01.19-.02.27-.02ZM564.43,61.33s-.01.04-.01.07c0-.02,0-.05.01-.07ZM574.63,58.36h-.02c-.09,0-.23-.02-.34-.08-.11-.06-.18-.16-.21-.27l-.08-.08v-.11c.14-1.59,15.66-16.36,19.49-17.79l.53-.2-.22.52c-1.29,3.1-3.85,7.7-6.12,11.76-.86,1.54-1.67,2.99-2.31,4.2-.05.08-.09.16-.12.23-.25.48-.49.93-1.28.98l-8.55.79c-.09,0-.18,0-.29.02-.15.01-.32.03-.48.03ZM574.53,57.86s.05,0,.1,0c.14,0,.29-.01.43-.03.13-.01.24-.02.31-.02l8.53-.79c.53-.03.65-.26.89-.71.04-.08.08-.16.13-.24.65-1.21,1.46-2.66,2.32-4.2,2.12-3.8,4.5-8.07,5.84-11.12-4.56,2.39-17.86,15.41-18.57,17.01l.03.03v.06Z"/>
    </g>
    <g>
      <path class="cls-2" d="M592.32,68.23h-.11c-.71,0-1.36-.45-1.35-1.1,0-.65,5.23-12.97,5.73-13.61.11-.16.27-.22.44-.21h.11c.49,0,1.03.34,1.03.66,0,.05,0,.11-.06.16-1.33,3.09-3.22,6.45-4.22,9.6-.06.11-.06.16-.06.22,0,.11.05.16.05.16h.05c.11,0,.22-.05.33-.27,1.6-2.05,5.62-7.19,7.81-8.31.44-.27.82-.37,1.15-.43h.11c2.67.02.04,7.79,2.65,8.14.11.06.27.06.38.06,2.34-.2,7.76-3.2,9.57-4.27.11-.11.22-.11.27-.11h.11c.33,0,.49.28.48.6,0,.16-.06.33-.22.49-1.48,1.13-8.05,4.66-10.55,4.86h-.22c-2.89-.03-2.97-3.35-2.95-5.58v-.49c.01-.87.02-1.47-.25-1.53h-.11c-1.69.15-7.58,7.88-9.13,10.42-.22.32-.66.48-1.04.54ZM605.52,47.94c.38,0,.93-.21,1.75-.8.71-.54,1.26-.75,1.59-.75.27,0,.43.17.43.44-.01,1.36-2.53,2.81-3.78,2.8-1.52-.01-2-1.76-3.25-1.77-.44,0-.87.16-1.47.53-.22.22-.83,1.35-1.59,1.35-.22,0-.43-.11-.65-.28-.16-.11-.22-.27-.21-.44,0-1.03,2.42-2.81,4.33-2.79h.16c1.52.02,1.56,1.7,2.71,1.71Z"/>
      <path class="cls-2" d="M592.34,68.48h-.13c-.9,0-1.6-.6-1.6-1.35,0-.84,5.4-13.26,5.78-13.76.13-.2.38-.31.64-.31h.11c.28,0,.58.09.83.25.29.18.45.42.44.66,0,.06,0,.18-.09.29-.47,1.08-1.01,2.21-1.54,3.31-.94,1.97-1.91,4-2.57,5.93,2.42-3.11,5.74-7.17,7.74-8.2.38-.23.77-.38,1.22-.45h.15c1.59.01,1.59,2.15,1.59,4.22,0,1.85,0,3.77,1.09,3.91l.08.02c.06.03.2.03.27.03,2.12-.18,7.07-2.83,9.42-4.22.18-.16.36-.15.42-.15h.11c.43,0,.73.36.73.85,0,.25-.1.47-.3.66-1.48,1.13-8.1,4.73-10.71,4.93h-.24c-1.38-.01-2.32-.73-2.79-2.13-.39-1.14-.41-2.5-.4-3.7v-.49c0-.5.01-1.13-.07-1.28h-.05c-1.46.13-7.2,7.49-8.92,10.31-.33.49-.96.62-1.22.65h-.02ZM597.02,53.55c-.14,0-.19.06-.23.11-.52.69-5.62,12.78-5.69,13.48,0,.52.56.84,1.11.85h.09c.39-.05.71-.21.85-.43,1.29-2.12,7.39-10.36,9.31-10.53h.13c.52.1.51.73.5,1.78v.49c-.01,1.15,0,2.47.37,3.54.41,1.2,1.17,1.78,2.33,1.79h.22c2.45-.19,9.01-3.75,10.4-4.81.11-.11.12-.21.12-.29,0-.11-.02-.21-.07-.27-.04-.05-.09-.08-.17-.08h-.11s-.06,0-.1.03l-.05.04c-2.37,1.41-7.44,4.12-9.67,4.3-.14,0-.32,0-.47-.06-1.47-.23-1.48-2.35-1.48-4.4,0-2.25-.08-3.72-1.1-3.73h-.11c-.2.03-.57.12-1.02.39-2.2,1.13-6.37,6.49-7.74,8.26-.03.06-.18.36-.52.36h0s-.16,0-.16,0l-.07-.07c-.06-.06-.12-.18-.12-.34,0-.09,0-.18.08-.33.64-2.02,1.68-4.17,2.67-6.26.55-1.16,1.08-2.25,1.54-3.33l.05-.08s-.07-.13-.23-.23c-.17-.11-.38-.17-.57-.17h-.11s0,0,0,0ZM599.19,49.98h0c-.25,0-.51-.11-.8-.33-.2-.13-.31-.36-.31-.64,0-.59.59-1.33,1.56-1.99.97-.66,2.08-1.04,2.99-1.04h.03s.16,0,.16,0c.93,0,1.39.58,1.76,1.04.33.41.55.67.95.67h0c.36,0,.9-.25,1.6-.75.68-.51,1.29-.79,1.72-.79h0c.2,0,.37.07.49.19.12.12.19.3.18.5-.01,1.49-2.61,3.04-4.01,3.04h-.02c-.9,0-1.46-.55-1.96-1.02-.42-.4-.79-.75-1.29-.75h-.01c-.37,0-.76.14-1.3.48-.04.05-.09.12-.16.21-.32.45-.87,1.19-1.58,1.19ZM602.62,46.47c-.81,0-1.82.36-2.71.96-.8.54-1.34,1.18-1.34,1.59,0,.14.06.2.11.23.21.16.37.23.51.24h0c.46,0,.93-.64,1.18-.99.1-.13.17-.23.23-.29l.04-.03c.64-.4,1.11-.57,1.59-.57h.02c.69,0,1.17.45,1.62.89.48.45.93.88,1.63.88h.01c1.16,0,3.51-1.39,3.52-2.55,0-.05,0-.11-.04-.15-.04-.04-.1-.05-.15-.04-.12,0-.58.05-1.43.7-.8.58-1.42.84-1.9.85-.65,0-.99-.44-1.33-.86-.35-.44-.68-.85-1.38-.86h-.16s-.02,0-.02,0Z"/>
    </g>
    <g>
      <path class="cls-2" d="M630.3,53.06c0-.11-.05-.11-.22-.11-1.31-.01-8.46,2.37-8.74,3.13v.11c0,.22.16.38.27.6.59.82.85,1.86.85,2.89-.04,4.25-4,9.44-6.4,9.91-.11.05-.27.05-.44.05-1.25-.01-2.28-1.16-2.26-3.34.02-2.29,1.14-5.65,4.34-10.09.28-.38.55-.65.93-.64.16,0,.33.06.49.17,3.12-2.37,10.83-5.29,14.69-5.31.6,0,1.03.61,1.02,1.21,0,.33-.17.65-.55.87-1.04.43-3.17,1.82-3.9,3.56-.11.33-.17.65-.17.92-.01,1.69,1.6,3.28,2.84,4.87.16.22.32.33.49.33.27,0,4.59-2.25,8.79-2.53h.11c.38,0,.54.33.54.66,0,.27-.17.49-.5.59-3.54.4-6.06,1.52-8.14,2.59-.66.38-.39.65-.56,1.41-.85,3.97-5.62,7.79-8.29,7.77-1.03,0-1.79-.72-1.78-1.76.02-1.8,2.59-3.68,3.8-4.59,1.32-1.02,2.63-1.94,3.95-2.9.22-.16.33-.27.33-.43,0-.22-.11-.38-.27-.6-1.08-1.43-2.96-3.73-3-5.25v-.11c.02-2.29,1.78-3.63,1.78-3.96ZM620.87,59.83c.02-1.85-.9-2.95-1.39-2.95-.05,0-.11,0-.16.05l-1.16,1.62c-1.49,2.27-3.21,5.42-3.23,8.19,0,.98.26,1.36.64,1.37.65,0,1.64-.97,2.41-1.88,2.2-2.59,2.87-4.77,2.89-6.4ZM625.46,70.93c0,.22.11.27.32.28,1.8.02,5.75-4.03,6.26-5.77.06-.05.06-.11.06-.16,0-.11-.05-.11-.16-.11-.16,0-.66.32-.71.37l-3.56,2.74c-1.48,1.24-2.2,2.21-2.2,2.65Z"/>
      <path class="cls-2" d="M625.52,72.92h-.03c-1.18-.01-2.04-.85-2.03-2.01.02-1.85,2.45-3.7,3.76-4.69l.13-.1c.88-.68,1.77-1.33,2.64-1.96.44-.32.87-.63,1.31-.95.19-.14.23-.19.23-.24,0-.13-.06-.24-.22-.45l-.34-.44c-1.13-1.48-2.68-3.5-2.71-4.95v-.12c.02-1.74.99-2.96,1.51-3.61.05-.07.11-.14.16-.2-1.64.12-7.86,2.31-8.35,2.95v.05c0,.08.05.16.12.28.04.07.08.14.12.21.56.78.88,1.86.87,3-.04,4.18-3.94,9.59-6.58,10.14-.15.06-.34.06-.51.06-1.26-.01-2.52-1.13-2.5-3.59.02-1.92.79-5.25,4.38-10.23.27-.37.61-.75,1.12-.75h0c.16,0,.32.04.47.12,3.15-2.31,10.74-5.24,14.71-5.26.77,0,1.28.76,1.27,1.46,0,.45-.25.84-.68,1.08-.95.39-3.08,1.72-3.79,3.44-.09.28-.15.58-.15.83-.01,1.29,1.06,2.59,2.09,3.85.24.29.48.58.7.87.11.15.22.23.29.24.04-.01.32-.13.62-.26,1.45-.61,4.83-2.05,8.15-2.27h.13c.25,0,.47.11.61.31.11.16.17.37.17.6,0,.39-.25.69-.67.83-3.5.4-5.96,1.48-8.1,2.58-.33.19-.33.29-.35.62,0,.16-.02.37-.08.62-.85,3.97-5.66,7.96-8.51,7.96ZM630.3,53.06h.25c0,.18-.13.34-.38.65-.48.61-1.38,1.74-1.4,3.31v.11c.03,1.29,1.59,3.31,2.61,4.66l.34.45c.18.25.32.46.32.75,0,.29-.21.46-.43.63-.44.32-.88.64-1.31.95-.86.62-1.75,1.27-2.63,1.95l-.14.1c-1.15.87-3.55,2.69-3.57,4.3,0,.88.62,1.5,1.54,1.51.01,0,.02,0,.03,0,3.3,0,7.4-4.71,8.02-7.57.05-.22.06-.39.07-.55.02-.38.04-.7.61-1.03,2.19-1.13,4.7-2.22,8.23-2.63.27-.09.28-.29.28-.35,0-.12-.03-.23-.08-.31-.05-.07-.12-.1-.21-.1h-.11c-3.21.22-6.55,1.63-7.97,2.23-.6.25-.71.3-.82.3h0c-.24,0-.47-.15-.68-.43-.22-.28-.45-.57-.69-.85-1.09-1.32-2.21-2.69-2.2-4.16,0-.31.07-.66.19-1,.78-1.87,3.06-3.3,4.04-3.71.32-.18.4-.45.4-.64,0-.45-.32-.95-.78-.96-3.94.02-11.53,2.98-14.54,5.26l-.14.11-.15-.1c-.12-.08-.24-.12-.35-.13h0c-.24,0-.44.15-.72.54-3.52,4.88-4.27,8.1-4.29,9.94-.02,1.87.77,3.08,2.01,3.09.11,0,.27,0,.33-.03l.06-.02c2.2-.43,6.17-5.47,6.2-9.67,0-1.04-.27-2.02-.8-2.75-.05-.1-.09-.15-.12-.21-.09-.15-.2-.32-.19-.54l.02-.19c.37-1,7.89-3.3,8.97-3.3h0c.1,0,.18,0,.26.03.06.02.2.11.2.33h-.25ZM630.05,53.06h.25s-.25,0-.25,0h0ZM625.79,71.45h-.01c-.47,0-.57-.29-.57-.52,0-.58.86-1.64,2.29-2.84l3.57-2.75s.58-.43.86-.43h0c.08,0,.15,0,.23.04.07.03.18.12.17.32,0,.06,0,.17-.08.28-.58,1.81-4.54,5.9-6.47,5.9ZM625.72,70.95s.04,0,.08,0c1.56,0,5.33-3.68,5.97-5.47-.14.08-.32.19-.38.24l-3.58,2.76c-1.54,1.29-2.1,2.17-2.11,2.45h-.25s.25,0,.25,0c0,.01,0,.02,0,.02,0,0,0,0,.01,0ZM615.58,68.36h0c-.29,0-.53-.16-.68-.45-.14-.27-.21-.65-.2-1.17.02-2.24,1.12-5.04,3.27-8.33l1.16-1.63c.16-.16.29-.16.37-.16.68,0,1.65,1.26,1.63,3.2-.02,2.07-1.01,4.27-2.95,6.56-1.1,1.31-1.97,1.97-2.59,1.97ZM619.49,57.13l-1.12,1.57c-2.09,3.19-3.17,5.9-3.19,8.05,0,.53.08.8.15.93.08.16.18.18.25.18h0c.44,0,1.27-.67,2.22-1.8,1.86-2.19,2.81-4.29,2.83-6.24h.25s-.25,0-.25,0c.02-1.76-.84-2.69-1.14-2.7Z"/>
    </g>
  </g>
</svg>