<?xml version="1.0" encoding="UTF-8"?>
<svg id="Capa_2" data-name="Capa 2" xmlns="http://www.w3.org/2000/svg" viewBox="0 0 548.94 70.67">
  <defs>
    <style>
      .cls-1 {
        fill: #fdd300;
      }

      .cls-2 {
        fill: #cd2127;
      }

      .cls-3 {
        fill: #263e8c;
      }

      .cls-4 {
        fill: #333;
      }
    </style>
  </defs>
  <g id="Capa_1-2" data-name="Capa 1">
    <g>
      <rect class="cls-1" x="42.25" y="-40.69" width="31.36" height="115.66" transform="translate(40.67 75.04) rotate(-89.88)"/>
      <rect class="cls-3" x="45.54" y="-12.66" width="24.68" height="115.66" transform="translate(12.6 102.95) rotate(-89.88)"/>
      <rect class="cls-2" x="49.19" y="2.72" width="17.31" height="115.66" transform="translate(-2.82 118.28) rotate(-89.88)"/>
    </g>
    <g>
      <g>
        <path class="cls-4" d="M154.69,29.82h13.48v3.41h-17.45V8.78h3.96v21.04Z"/>
        <path class="cls-4" d="M193.21,33.22h-4.19l-2.33-6.41h-10.26l-2.33,6.41h-4.07l9.22-24.45h4.74l9.22,24.45ZM177.54,23.59h8.04l-4-11.41-4.04,11.41Z"/>
        <path class="cls-4" d="M208.32,33.22V8.78h17.71v3.41h-13.74v7.04h10.74v3.33h-10.74v7.26h14.26v3.41h-18.22Z"/>
        <path class="cls-4" d="M256.88,8.78v24.45h-3.67v-14.15l.3-6.74h-.04l-7.44,20.89h-3.3l-7.44-20.89h-.04l.3,6.74v14.15h-3.67V8.78h5.89l4.93,14.15,1.7,5.81h.07l1.74-5.81,4.89-14.15h5.78Z"/>
        <path class="cls-4" d="M273.55,8.78c1.75,0,3.26.31,4.54.93,1.27.62,2.27,1.49,2.98,2.63.72,1.14,1.07,2.51,1.07,4.11s-.36,2.94-1.07,4.09c-.72,1.15-1.71,2.03-2.98,2.65s-2.78.93-4.54.93h-5.44v9.11h-3.96V8.78h9.41ZM272.92,20.7c1.75,0,3.04-.36,3.87-1.09.83-.73,1.24-1.78,1.24-3.17s-.41-2.48-1.24-3.2c-.83-.73-2.12-1.09-3.87-1.09h-4.81v8.56h4.81Z"/>
        <path class="cls-4" d="M297.33,8.78c2.62,0,4.7.65,6.24,1.96,1.54,1.31,2.32,3.07,2.32,5.3s-.77,4.07-2.32,5.32c-1.54,1.25-3.62,1.87-6.24,1.87l-.37.22h-5.67v9.78h-3.93V8.78h9.96ZM297.03,20.15c1.6,0,2.8-.33,3.57-.98.78-.65,1.17-1.66,1.17-3.02s-.39-2.33-1.17-3c-.78-.67-1.97-1-3.57-1h-5.74v8h5.74ZM299.37,20.96l7.96,12.26h-4.56l-6.81-10.7,3.41-1.56Z"/>
        <path class="cls-4" d="M312.26,33.22V8.78h17.71v3.41h-13.74v7.04h10.74v3.33h-10.74v7.26h14.26v3.41h-18.22Z"/>
        <path class="cls-4" d="M344.15,8.41c2.2,0,4.1.41,5.7,1.24,1.6.83,2.96,2.04,4.07,3.65l-2.67,2.56c-.94-1.43-1.99-2.46-3.17-3.09s-2.56-.94-4.17-.94c-1.19,0-2.16.16-2.93.48-.77.32-1.33.75-1.69,1.28-.36.53-.54,1.13-.54,1.8,0,.77.27,1.43.8,2,.53.57,1.52,1.01,2.98,1.33l4.96,1.11c2.37.52,4.05,1.31,5.04,2.37.99,1.06,1.48,2.41,1.48,4.04,0,1.51-.41,2.81-1.22,3.93-.81,1.11-1.94,1.96-3.39,2.56s-3.14.89-5.09.89c-1.73,0-3.28-.22-4.67-.67s-2.59-1.05-3.63-1.82c-1.04-.77-1.89-1.64-2.56-2.63l2.74-2.74c.52.86,1.17,1.64,1.96,2.32s1.71,1.2,2.76,1.57c1.05.37,2.22.56,3.5.56,1.13,0,2.12-.14,2.94-.41.83-.27,1.46-.67,1.89-1.2.43-.53.65-1.17.65-1.91s-.24-1.35-.72-1.89c-.48-.54-1.38-.96-2.68-1.26l-5.37-1.22c-1.48-.32-2.7-.78-3.67-1.37-.96-.59-1.68-1.31-2.15-2.17s-.7-1.81-.7-2.87c0-1.38.38-2.64,1.13-3.76.75-1.12,1.85-2.02,3.28-2.7,1.43-.68,3.14-1.02,5.11-1.02Z"/>
        <path class="cls-4" d="M379.67,33.22h-4.19l-2.33-6.41h-10.26l-2.33,6.41h-4.07l9.22-24.45h4.74l9.22,24.45ZM364,23.59h8.04l-4-11.41-4.04,11.41Z"/>
        <path class="cls-4" d="M419.78,8.78v24.45h-3.67v-14.15l.3-6.74h-.04l-7.44,20.89h-3.3l-7.44-20.89h-.04l.3,6.74v14.15h-3.67V8.78h5.89l4.93,14.15,1.7,5.81h.07l1.74-5.81,4.89-14.15h5.78Z"/>
        <path class="cls-4" d="M447.34,33.22h-4.19l-2.33-6.41h-10.26l-2.33,6.41h-4.07l9.22-24.45h4.74l9.22,24.45ZM431.67,23.59h8.04l-4-11.41-4.04,11.41ZM436.23,0h3.85l-3.22,5.93h-3.04l2.41-5.93Z"/>
        <path class="cls-4" d="M459.75,8.41c2.2,0,4.1.41,5.7,1.24,1.6.83,2.96,2.04,4.07,3.65l-2.67,2.56c-.94-1.43-1.99-2.46-3.17-3.09s-2.56-.94-4.17-.94c-1.19,0-2.16.16-2.93.48-.77.32-1.33.75-1.69,1.28-.36.53-.54,1.13-.54,1.8,0,.77.27,1.43.8,2,.53.57,1.52,1.01,2.98,1.33l4.96,1.11c2.37.52,4.05,1.31,5.04,2.37.99,1.06,1.48,2.41,1.48,4.04,0,1.51-.41,2.81-1.22,3.93-.81,1.11-1.94,1.96-3.39,2.56s-3.14.89-5.09.89c-1.73,0-3.28-.22-4.67-.67s-2.59-1.05-3.63-1.82c-1.04-.77-1.89-1.64-2.56-2.63l2.74-2.74c.52.86,1.17,1.64,1.96,2.32s1.71,1.2,2.76,1.57c1.05.37,2.22.56,3.5.56,1.13,0,2.12-.14,2.94-.41.83-.27,1.46-.67,1.89-1.2.43-.53.65-1.17.65-1.91s-.24-1.35-.72-1.89c-.48-.54-1.38-.96-2.68-1.26l-5.37-1.22c-1.48-.32-2.7-.78-3.67-1.37-.96-.59-1.68-1.31-2.15-2.17s-.7-1.81-.7-2.87c0-1.38.38-2.64,1.13-3.76.75-1.12,1.85-2.02,3.28-2.7,1.43-.68,3.14-1.02,5.11-1.02Z"/>
      </g>
      <g>
        <path class="cls-4" d="M150.73,70.3v-24.45h9.63c2.94,0,5.09.59,6.45,1.78s2.04,2.83,2.04,4.93c0,1.28-.37,2.43-1.11,3.43-.74,1-1.83,1.64-3.26,1.91v.04c1.58.25,2.81.9,3.69,1.94.88,1.05,1.32,2.27,1.32,3.65,0,2.1-.77,3.75-2.3,4.96-1.53,1.21-3.75,1.82-6.67,1.82h-9.78ZM154.61,56.37h5.44c3.11,0,4.67-1.2,4.67-3.59s-1.56-3.59-4.67-3.59h-5.44v7.19ZM154.61,67.01h6.07c1.56,0,2.72-.32,3.5-.96s1.17-1.54,1.17-2.7-.39-2.06-1.17-2.7c-.78-.64-1.94-.96-3.5-.96h-6.07v7.33Z"/>
        <path class="cls-4" d="M185.39,45.49c2.37,0,4.42.51,6.15,1.52,1.73,1.01,3.06,2.46,4,4.33.94,1.88,1.41,4.13,1.41,6.74s-.47,4.87-1.41,6.74c-.94,1.88-2.27,3.32-4,4.33-1.73,1.01-3.78,1.52-6.15,1.52s-4.38-.51-6.11-1.52c-1.73-1.01-3.06-2.46-4-4.33-.94-1.88-1.41-4.12-1.41-6.74s.47-4.86,1.41-6.74c.94-1.88,2.27-3.32,4-4.33,1.73-1.01,3.76-1.52,6.11-1.52ZM185.39,48.93c-1.53,0-2.85.36-3.94,1.07-1.1.72-1.94,1.75-2.54,3.11-.59,1.36-.89,3.01-.89,4.96s.3,3.57.89,4.94,1.44,2.41,2.54,3.13c1.1.72,2.41,1.07,3.94,1.07s2.88-.36,3.98-1.07c1.1-.72,1.94-1.76,2.54-3.13s.89-3.02.89-4.94-.3-3.6-.89-4.96c-.59-1.36-1.44-2.39-2.54-3.11-1.1-.72-2.43-1.07-3.98-1.07Z"/>
        <path class="cls-4" d="M222.88,45.86v24.45h-4.7l-9.45-15.41-2.37-4.33h-.04l.15,3.96v15.78h-3.63v-24.45h4.67l9.41,15.37,2.41,4.41h.04l-.15-4v-15.78h3.67Z"/>
        <path class="cls-4" d="M234.07,45.86v24.45h-3.96v-24.45h3.96Z"/>
        <path class="cls-4" d="M259.51,45.86v3.41h-8.37v21.04h-3.96v-21.04h-8.37v-3.41h20.71Z"/>
        <path class="cls-4" d="M281.33,70.3h-4.19l-2.33-6.41h-10.26l-2.33,6.41h-4.07l9.22-24.45h4.74l9.22,24.45ZM265.66,60.67h8.04l-4-11.41-4.04,11.41Z"/>
        <path class="cls-4" d="M305.07,45.86c3.83,0,6.81,1.06,8.95,3.17,2.14,2.11,3.2,5.13,3.2,9.06s-1.07,6.95-3.2,9.06c-2.14,2.11-5.12,3.17-8.95,3.17h-8.63v-24.45h8.63ZM305.07,66.93c2.59,0,4.57-.77,5.94-2.32,1.37-1.54,2.06-3.72,2.06-6.54s-.68-4.99-2.06-6.54c-1.37-1.54-3.35-2.32-5.94-2.32h-4.67v17.71h4.67Z"/>
        <path class="cls-4" d="M323.11,70.3v-24.45h17.71v3.41h-13.74v7.04h10.74v3.33h-10.74v7.26h14.26v3.41h-18.22Z"/>
        <path class="cls-4" d="M378.97,63.82c-.49,1.48-1.23,2.74-2.22,3.76-.99,1.03-2.15,1.8-3.48,2.32-1.33.52-2.8.78-4.41.78-2.35,0-4.38-.51-6.11-1.52-1.73-1.01-3.06-2.46-4-4.33-.94-1.88-1.41-4.12-1.41-6.74s.47-4.86,1.41-6.74c.94-1.88,2.27-3.32,4-4.33,1.73-1.01,3.75-1.52,6.07-1.52,1.6,0,3.06.22,4.35.67,1.3.45,2.4,1.11,3.31,2s1.62,2,2.11,3.33l-3.74,1.67c-.49-1.46-1.21-2.52-2.15-3.2-.94-.68-2.16-1.02-3.67-1.02s-2.83.36-3.96,1.07c-1.14.72-2.02,1.75-2.65,3.11-.63,1.36-.94,3.01-.94,4.96s.3,3.57.89,4.94,1.44,2.41,2.56,3.13c1.11.72,2.45,1.07,4,1.07s2.81-.39,3.91-1.17c1.1-.78,1.88-1.95,2.35-3.5l3.78,1.26Z"/>
        <path class="cls-4" d="M394.19,45.49c2.37,0,4.42.51,6.15,1.52,1.73,1.01,3.06,2.46,4,4.33.94,1.88,1.41,4.13,1.41,6.74s-.47,4.87-1.41,6.74c-.94,1.88-2.27,3.32-4,4.33-1.73,1.01-3.78,1.52-6.15,1.52s-4.38-.51-6.11-1.52c-1.73-1.01-3.06-2.46-4-4.33-.94-1.88-1.41-4.12-1.41-6.74s.47-4.86,1.41-6.74c.94-1.88,2.27-3.32,4-4.33,1.73-1.01,3.76-1.52,6.11-1.52ZM394.19,48.93c-1.53,0-2.85.36-3.94,1.07-1.1.72-1.94,1.75-2.54,3.11-.59,1.36-.89,3.01-.89,4.96s.3,3.57.89,4.94,1.44,2.41,2.54,3.13c1.1.72,2.41,1.07,3.94,1.07s2.88-.36,3.98-1.07c1.1-.72,1.94-1.76,2.54-3.13s.89-3.02.89-4.94-.3-3.6-.89-4.96c-.59-1.36-1.44-2.39-2.54-3.11-1.1-.72-2.43-1.07-3.98-1.07Z"/>
        <path class="cls-4" d="M415.6,66.89h13.48v3.41h-17.45v-24.45h3.96v21.04Z"/>
        <path class="cls-4" d="M443.19,45.49c2.37,0,4.42.51,6.15,1.52,1.73,1.01,3.06,2.46,4,4.33.94,1.88,1.41,4.13,1.41,6.74s-.47,4.87-1.41,6.74c-.94,1.88-2.27,3.32-4,4.33-1.73,1.01-3.78,1.52-6.15,1.52s-4.38-.51-6.11-1.52c-1.73-1.01-3.06-2.46-4-4.33-.94-1.88-1.41-4.12-1.41-6.74s.47-4.86,1.41-6.74c.94-1.88,2.27-3.32,4-4.33,1.73-1.01,3.76-1.52,6.11-1.52ZM443.19,48.93c-1.53,0-2.85.36-3.94,1.07-1.1.72-1.94,1.75-2.54,3.11-.59,1.36-.89,3.01-.89,4.96s.3,3.57.89,4.94,1.44,2.41,2.54,3.13c1.1.72,2.41,1.07,3.94,1.07s2.88-.36,3.98-1.07c1.1-.72,1.94-1.76,2.54-3.13s.89-3.02.89-4.94-.3-3.6-.89-4.96c-.59-1.36-1.44-2.39-2.54-3.11-1.1-.72-2.43-1.07-3.98-1.07Z"/>
        <path class="cls-4" d="M485.64,45.86v24.45h-3.67v-14.15l.3-6.74h-.04l-7.44,20.89h-3.3l-7.44-20.89h-.04l.3,6.74v14.15h-3.67v-24.45h5.89l4.93,14.15,1.7,5.81h.07l1.74-5.81,4.89-14.15h5.78Z"/>
        <path class="cls-4" d="M492.9,70.3v-24.45h9.63c2.94,0,5.09.59,6.45,1.78s2.04,2.83,2.04,4.93c0,1.28-.37,2.43-1.11,3.43-.74,1-1.83,1.64-3.26,1.91v.04c1.58.25,2.81.9,3.69,1.94.88,1.05,1.32,2.27,1.32,3.65,0,2.1-.77,3.75-2.3,4.96-1.53,1.21-3.75,1.82-6.67,1.82h-9.78ZM496.79,56.37h5.44c3.11,0,4.67-1.2,4.67-3.59s-1.56-3.59-4.67-3.59h-5.44v7.19ZM496.79,67.01h6.07c1.56,0,2.72-.32,3.5-.96s1.17-1.54,1.17-2.7-.39-2.06-1.17-2.7c-.78-.64-1.94-.96-3.5-.96h-6.07v7.33Z"/>
        <path class="cls-4" d="M521.38,45.86v24.45h-3.96v-24.45h3.96Z"/>
        <path class="cls-4" d="M548.94,70.3h-4.19l-2.33-6.41h-10.26l-2.33,6.41h-4.07l9.22-24.45h4.74l9.22,24.45ZM533.27,60.67h8.04l-4-11.41-4.04,11.41Z"/>
      </g>
    </g>
  </g>
</svg>